<?xml version="1.0" encoding="UTF-8"?>
<svg version="1.1" xmlns="http://www.w3.org/2000/svg" width="2000" height="1500">
<path d="M0 0 C660 0 1320 0 2000 0 C2000 495 2000 990 2000 1500 C1340 1500 680 1500 0 1500 C0 1005 0 510 0 0 Z " fill="#EAF3E0" transform="translate(0,0)"/>
<path d="M0 0 C0.6754184 -0.0049649 1.35083679 -0.00992981 2.04672241 -0.01504517 C4.21255614 -0.02928381 6.37831728 -0.03639706 8.54418945 -0.04199219 C9.29876749 -0.04481956 10.05334553 -0.04764694 10.83078957 -0.05056 C14.81281486 -0.06538414 18.79480541 -0.07472283 22.77685547 -0.07910156 C26.84799024 -0.08460861 30.91879446 -0.10873183 34.98982525 -0.13707352 C38.16342582 -0.15582142 41.3369479 -0.16091158 44.51059914 -0.16243744 C46.01067758 -0.16542943 47.51075582 -0.1733382 49.01077843 -0.18662262 C63.91536774 -0.30937703 79.01132531 1.58411414 90.23950195 12.27441406 C95.70384194 18.23214818 96.63217531 24.12506794 96.58154297 32.08447266 C96.17602767 40.58145573 92.33449749 46.80814229 86.7199707 53.03613281 C78.63220119 60.21829506 70.78235755 61.97669705 60.1574707 61.72363281 C58.96677979 61.70848633 57.77608887 61.69333984 56.54931641 61.67773438 C47.63787171 61.45550085 39.30147582 60.20850522 30.6184082 58.31347656 C23.72624343 56.83586674 16.76567402 55.90803266 9.7824707 54.97363281 C8.58388428 54.80702148 7.38529785 54.64041016 6.15039062 54.46875 C-10.57179259 52.25863989 -27.32417558 52.0067019 -44.16723633 51.95581055 C-46.25198996 51.94606827 -48.33674173 51.93592146 -50.42149162 51.92540836 C-55.94815278 51.89863368 -61.47482169 51.87731426 -67.00151062 51.85721588 C-72.2088681 51.83742593 -77.4161971 51.81259469 -82.62353516 51.78820801 C-97.80067821 51.72001294 -112.97785628 51.65979882 -128.1550293 51.59863281 C-162.1037793 51.45425781 -196.0525293 51.30988281 -231.0300293 51.16113281 C-231.0300293 133.00113281 -231.0300293 214.84113281 -231.0300293 299.16113281 C-206.6512793 299.03738281 -182.2725293 298.91363281 -157.1550293 298.78613281 C-149.57034668 298.75213379 -141.98566406 298.71813477 -134.17114258 298.68310547 C-127.98084464 298.65001011 -121.7905905 298.61574565 -115.6003418 298.57519531 C-114.79142251 298.5699592 -113.98250321 298.5647231 -113.14907122 298.55932832 C-86.87192861 298.38484194 -60.65894043 297.77133286 -34.40951729 296.48203945 C-25.78619759 296.07293182 -17.16198149 295.92728258 -8.5300293 295.84863281 C-7.22209412 295.83628098 -5.91415894 295.82392914 -4.56658936 295.811203 C6.40015553 295.76707093 15.46218055 298.01041348 23.9699707 305.16113281 C28.77279278 311.07229845 30.48578184 316.92024307 30.27075195 324.44628906 C29.47872218 331.59512922 27.21238127 337.46216299 22.0949707 342.59863281 C3.87966039 355.26049486 -19.01992343 350.25091959 -231.0300293 349.16113281 C-231.0300293 556.07113281 -231.0300293 762.98113281 -231.0300293 976.16113281 C-346.8600293 976.16113281 -462.6900293 976.16113281 -582.0300293 976.16113281 C-582.0300293 654.74113281 -582.0300293 333.32113281 -582.0300293 2.16113281 C-303.4675293 1.72363281 -303.4675293 1.72363281 -215.44580078 1.59301758 C-189.4534367 1.5497739 -189.4534367 1.5497739 -163.46107483 1.50523376 C-151.10226728 1.48409302 -138.74345913 1.46618082 -126.38464445 1.44983578 C-113.7761078 1.43308088 -101.16758095 1.41266721 -88.55905581 1.38875907 C-81.71854635 1.37588563 -74.87804434 1.36462898 -68.03752601 1.35766327 C-61.84825435 1.35133172 -55.65900745 1.34048721 -49.46974945 1.32608795 C-47.23587375 1.32168003 -45.00199406 1.3189098 -42.76811421 1.31797397 C-32.12429015 1.31265436 -21.5475842 1.22877786 -10.93327928 0.38803548 C-7.27814557 0.10236956 -3.66595806 0.02100276 0 0 Z " fill="#85049F" transform="translate(1241.030029296875,260.8388671875)"/>
</svg>
